<?xml version="1.0" standalone="no"?>
<!DOCTYPE svg PUBLIC "-//W3C//DTD SVG 20010904//EN"
 "http://www.w3.org/TR/2001/REC-SVG-20010904/DTD/svg10.dtd">
<svg version="1.0" xmlns="http://www.w3.org/2000/svg"
 width="540.000000pt" height="121.000000pt" viewBox="0 0 540.000000 121.000000"
 preserveAspectRatio="xMidYMid meet">
<metadata>
Created by potrace 1.15, written by Peter Selinger 2001-2017
</metadata>
<g transform="translate(0.000000,121.000000) scale(0.100000,-0.100000)"
fill="#000000" stroke="none">
<path d="M1547 824 c-4 -4 -7 -101 -7 -215 0 -225 -2 -219 58 -219 48 0 51 8
54 140 l3 125 74 -118 c40 -65 83 -124 95 -132 28 -20 120 -20 140 1 13 13 16
46 16 200 0 109 -4 193 -10 205 -12 22 -78 27 -98 7 -8 -8 -12 -54 -12 -142
l0 -131 -64 100 c-115 182 -113 180 -182 183 -33 2 -63 0 -67 -4z"/>
<path d="M3518 824 c-5 -4 -8 -101 -8 -215 0 -224 -1 -219 56 -219 46 0 64 17
64 59 l0 39 108 3 c150 6 188 33 199 143 8 76 -16 137 -65 168 -34 21 -51 23
-192 26 -85 2 -158 0 -162 -4z m282 -114 c27 -27 26 -81 -1 -106 -15 -14 -40
-20 -95 -22 l-74 -4 0 76 0 76 75 0 c62 0 79 -4 95 -20z"/>
<path d="M4657 824 c-4 -4 -7 -88 -7 -187 l0 -179 34 -34 c32 -32 38 -34 104
-34 76 0 96 12 90 52 -3 20 -10 23 -48 26 -63 5 -70 14 -70 93 l0 69 45 0 45
0 0 40 0 40 -45 0 -44 0 -3 58 -3 57 -45 3 c-25 2 -49 0 -53 -4z"/>
<path d="M5302 613 l3 -218 45 0 45 0 3 218 2 217 -50 0 -50 0 2 -217z"/>
<path d="M2105 711 c-62 -38 -70 -55 -70 -151 0 -84 1 -90 29 -119 39 -41 84
-54 167 -49 83 4 122 28 127 76 3 32 3 32 -41 32 -27 0 -49 -6 -57 -15 -28
-34 -120 -10 -120 31 0 11 22 14 115 14 l115 0 0 43 c0 54 -26 106 -69 134
-45 30 -151 32 -196 4z"/>
<path d="M2385 720 c-5 -8 55 -211 86 -292 12 -30 50 -43 93 -32 23 5 30 17
53 95 l28 89 30 -87 c25 -74 34 -89 58 -97 17 -6 37 -6 54 0 25 8 32 25 75
154 26 80 48 153 48 163 0 14 -9 17 -44 17 -57 0 -69 -13 -91 -95 -10 -36 -21
-62 -25 -58 -5 4 -15 35 -25 68 -22 78 -29 85 -81 85 -23 0 -46 -6 -51 -12 -4
-7 -17 -44 -29 -82 -11 -38 -23 -65 -26 -60 -3 5 -13 36 -23 69 -9 33 -22 66
-27 73 -12 14 -94 16 -103 2z"/>
<path d="M2973 714 c-41 -20 -58 -66 -42 -112 13 -38 36 -52 137 -82 83 -24
91 -43 20 -48 -31 -2 -49 2 -58 13 -8 9 -29 15 -56 15 -41 0 -44 -2 -44 -27 0
-16 4 -33 8 -40 15 -23 82 -43 144 -43 121 0 168 28 168 100 0 51 -38 84 -120
105 -35 9 -73 21 -84 27 -19 10 -19 11 -1 24 26 19 55 17 90 -6 17 -11 47 -20
68 -20 34 0 37 2 37 29 0 33 -20 58 -57 72 -40 15 -174 10 -210 -7z"/>
<path d="M4041 712 c-52 -26 -74 -63 -79 -131 -9 -123 41 -183 159 -189 129
-8 192 47 193 168 1 78 -21 123 -74 151 -46 25 -152 26 -199 1z m122 -61 c47
-18 60 -126 21 -166 -9 -8 -31 -15 -49 -15 -44 0 -65 29 -65 93 0 38 5 53 25
72 27 28 33 29 68 16z"/>
<path d="M4367 723 c-4 -3 -7 -77 -7 -164 0 -169 0 -169 55 -169 53 0 55 5 55
116 0 95 2 104 22 118 13 9 43 16 70 16 42 0 48 3 54 24 11 47 2 61 -43 64
-24 2 -55 -3 -71 -12 -26 -14 -31 -14 -36 -1 -6 15 -86 22 -99 8z"/>
<path d="M4960 712 c-29 -14 -35 -23 -38 -54 -3 -37 -3 -38 33 -38 20 0 53 9
73 21 30 17 42 19 65 10 16 -6 27 -18 27 -30 0 -17 -9 -19 -86 -22 -82 -4 -87
-5 -115 -37 -69 -77 -6 -172 114 -172 27 0 58 5 69 11 15 8 26 8 43 -1 12 -6
35 -10 51 -8 l29 3 3 128 c3 140 -2 157 -51 187 -43 27 -166 28 -217 2z"/>
</g>
</svg>
